# xmcd
#
# Track frame offsets: 
#        150
#        16525
#        29167
#        38085
#        57200
#        70215
#        85790
#        100185
#        116500
#        136637
#        153280
#        169917
#
# Disc length: 2453 seconds
#
# Revision: 2
# Processed by: cddbd v1.5PL3 Copyright (c) Steve Scherf et al.
# Submitted via: ExactAudioCopy v0.95a3
#
DISCID=8d09930c
DTITLE=Keith Whitley - Don't Close Your Eyes
DYEAR=1988
DGENRE=Country
TTITLE0=Flying Colors
TTITLE1=It's All Coming Back To Me Now
TTITLE2=Lucky Dog
TTITLE3=Don't Close Your Eyes
TTITLE4=The Birmingham Turnaround
TTITLE5=Some Old Side Road
TTITLE6=Would These Arms Be In Your Way
TTITLE7=I'm No Stranger To The Rain
TTITLE8=I Never Go Around Mirrors
TTITLE9=When You Say Nothing At All
TTITLE10=A Day In The Life Of A Fool
TTITLE11=Honky Tonk Heart
EXTD=
EXTT0=
EXTT1=
EXTT2=
EXTT3=
EXTT4=
EXTT5=
EXTT6=
EXTT7=
EXTT8=
EXTT9=
EXTT10=
EXTT11=
PLAYORDER=
